<?xml version="1.0" encoding="UTF-8" standalone="no"?>
<svg
   xmlns:dc="http://purl.org/dc/elements/1.1/"
   xmlns:cc="http://creativecommons.org/ns#"
   xmlns:rdf="http://www.w3.org/1999/02/22-rdf-syntax-ns#"
   xmlns:svg="http://www.w3.org/2000/svg"
   xmlns="http://www.w3.org/2000/svg"
   xmlns:sodipodi="http://sodipodi.sourceforge.net/DTD/sodipodi-0.dtd"
   xmlns:inkscape="http://www.inkscape.org/namespaces/inkscape"
   width="0.122857in"
   height="0.105714in"
   viewBox="0 0 43 37"
   id="svg2985"
   version="1.1"
   inkscape:version="0.48.1 "
   sodipodi:docname="article.svg">
  <metadata
     id="metadata2992">
    <rdf:RDF>
      <cc:Work
         rdf:about="">
        <dc:format>image/svg+xml</dc:format>
        <dc:type
           rdf:resource="http://purl.org/dc/dcmitype/StillImage" />
        <dc:title></dc:title>
      </cc:Work>
    </rdf:RDF>
  </metadata>
  <defs
     id="defs2990" />
  <sodipodi:namedview
     pagecolor="#ffffff"
     bordercolor="#666666"
     borderopacity="1"
     objecttolerance="10"
     gridtolerance="10"
     guidetolerance="10"
     inkscape:pageopacity="0"
     inkscape:pageshadow="2"
     inkscape:window-width="708"
     inkscape:window-height="542"
     id="namedview2988"
     showgrid="false"
     inkscape:zoom="30.585667"
     inkscape:cx="5.5285649"
     inkscape:cy="4.7571301"
     inkscape:window-x="261"
     inkscape:window-y="85"
     inkscape:window-maximized="0"
     inkscape:current-layer="svg2985" />
  <path
     id="Uten navn"
     fill="none"
     stroke="black"
     stroke-width="1"
     d="M 4.50,34.63            C 4.50,34.63 9.50,26.88 9.50,26.88              9.50,26.88 9.00,25.88 9.00,25.88              9.00,25.88 13.13,15.50 20.88,8.50              28.63,1.50 36.00,1.50 37.88,1.38              35.63,2.50 32.13,5.00 29.63,7.25              29.63,7.25 26.13,7.13 26.13,7.13              26.13,7.13 28.38,8.13 28.38,8.13              28.38,8.13 25.13,11.25 22.88,13.63              22.88,13.63 20.00,13.13 20.00,13.13              20.00,13.13 22.00,14.75 22.00,14.75              22.00,14.75 11.63,26.13 10.88,27.63              10.88,27.63 9.38,28.63 9.38,28.63              9.38,28.63 4.50,34.63 4.50,34.63 Z"
     style="stroke:none;fill:#ffffff;fill-opacity:1;opacity:0.57"
     inkscape:export-filename="C:\Users\Fredrik\Desktop\fredrik.ludvigsen.name\css\fosswinckelsgate\article.png"
     inkscape:export-xdpi="765.66998"
     inkscape:export-ydpi="765.66998" />
</svg>
