<?xml version="1.0" encoding="UTF-8" standalone="no"?>
<svg
   xmlns:dc="http://purl.org/dc/elements/1.1/"
   xmlns:cc="http://creativecommons.org/ns#"
   xmlns:rdf="http://www.w3.org/1999/02/22-rdf-syntax-ns#"
   xmlns:svg="http://www.w3.org/2000/svg"
   xmlns="http://www.w3.org/2000/svg"
   xmlns:sodipodi="http://sodipodi.sourceforge.net/DTD/sodipodi-0.dtd"
   xmlns:inkscape="http://www.inkscape.org/namespaces/inkscape"
   width="0.122857in"
   height="0.105714in"
   viewBox="0 0 43 37"
   id="svg2985"
   version="1.1"
   inkscape:version="0.48.1 "
   sodipodi:docname="C:\Users\Fredrik\Desktop\comment.svg">
  <metadata
     id="metadata2992">
    <rdf:RDF>
      <cc:Work
         rdf:about="">
        <dc:format>image/svg+xml</dc:format>
        <dc:type
           rdf:resource="http://purl.org/dc/dcmitype/StillImage" />
        <dc:title></dc:title>
      </cc:Work>
    </rdf:RDF>
  </metadata>
  <defs
     id="defs2990" />
  <sodipodi:namedview
     pagecolor="#ffffff"
     bordercolor="#666666"
     borderopacity="1"
     objecttolerance="10"
     gridtolerance="10"
     guidetolerance="10"
     inkscape:pageopacity="0"
     inkscape:pageshadow="2"
     inkscape:window-width="708"
     inkscape:window-height="555"
     id="namedview2988"
     showgrid="false"
     inkscape:zoom="30.585667"
     inkscape:cx="5.5285649"
     inkscape:cy="4.7571301"
     inkscape:window-x="66"
     inkscape:window-y="79"
     inkscape:window-maximized="0"
     inkscape:current-layer="svg2985" />
  <path
     style="fill:#ffffff;stroke:none;stroke-width:0.25714216000000001;fill-opacity:1;opacity:0.57"
     d="M 5.53125 1.8125 C 5.1299877 1.8079197 4.7463205 1.866143 4.40625 1.9375 C 3.9356798 2.1072138 3.4790703 2.2701438 3.0625 2.625 C 1.1339337 4.2784242 2.2920792 7.2703576 5.1875 7.4375 C 5.778927 7.4709285 6.4882871 7.4133922 7 7.15625 L 8.75 8 L 8.28125 6.21875 C 8.8443914 5.6016088 9.100713 4.7512827 8.625 3.625 C 8.0580015 2.2769322 6.735037 1.826241 5.53125 1.8125 z M 3.6875 3.21875 C 3.8567664 3.348955 4.1487229 3.4024032 4.46875 3.40625 C 4.7887771 3.4100968 5.1260643 3.3577657 5.375 3.28125 C 5.7336331 3.1710168 6.2123917 3.1946566 6.625 3.25 C 6.8313041 3.2776716 7.0373202 3.3078982 7.1875 3.34375 C 7.2625899 3.3616759 7.3216155 3.3892683 7.375 3.40625 C 7.4283845 3.4232314 7.4560891 3.4418118 7.5 3.46875 L 7.34375 3.71875 C 7.3516458 3.723594 7.3247551 3.7013394 7.28125 3.6875 C 7.2377449 3.6736611 7.1633502 3.672864 7.09375 3.65625 C 6.9545499 3.6230193 6.7895774 3.5887666 6.59375 3.5625 C 6.202095 3.5099671 5.7378002 3.4798018 5.46875 3.5625 C 5.1864007 3.649286 4.8251043 3.723034 4.46875 3.71875 C 4.1123957 3.7144665 3.7557693 3.6654956 3.5 3.46875 L 3.6875 3.21875 z M 3.25 4.3125 C 3.4919116 4.4405722 3.733205 4.4359533 4 4.40625 C 4.266795 4.3765467 4.5424413 4.3329886 4.84375 4.34375 C 5.0931386 4.3526561 5.3967187 4.397284 5.6875 4.4375 C 5.9782813 4.477716 6.2549695 4.4870824 6.46875 4.4375 C 6.9234028 4.3320517 7.1514441 4.2171492 7.90625 4.46875 L 7.8125 4.75 C 7.0960284 4.5111772 7.0202411 4.6365874 6.53125 4.75 C 6.2473164 4.8158533 5.9270379 4.7605227 5.625 4.71875 C 5.3229621 4.6769773 5.0520922 4.6324417 4.84375 4.625 C 4.5973389 4.6162001 4.3222948 4.686347 4.03125 4.71875 C 3.7402052 4.751153 3.4076542 4.7599346 3.09375 4.59375 L 3.25 4.3125 z M 3.34375 5.46875 C 3.9877469 5.5704335 4.5134262 5.8022417 4.90625 5.71875 C 5.014133 5.6958201 5.2738847 5.6140318 5.5625 5.5625 C 5.8511153 5.5109682 6.1438896 5.4823035 6.34375 5.5 C 6.6639283 5.5283486 7.2643918 5.5927095 7.625 5.71875 L 7.53125 6 C 7.242872 5.8992057 6.6525389 5.8085901 6.34375 5.78125 C 6.2291268 5.7711014 5.9059561 5.8248357 5.625 5.875 C 5.3440439 5.9251643 5.080308 5.9762889 4.96875 6 C 4.4383639 6.1127298 3.9109153 5.8757366 3.3125 5.78125 L 3.34375 5.46875 z "
     transform="matrix(3.8888993,0,0,3.8888993,-3.2175855e-5,0)"
     id="Valg" />
</svg>
