<?xml version="1.0" encoding="UTF-8" standalone="no"?>
<svg
   xmlns:dc="http://purl.org/dc/elements/1.1/"
   xmlns:cc="http://creativecommons.org/ns#"
   xmlns:rdf="http://www.w3.org/1999/02/22-rdf-syntax-ns#"
   xmlns:svg="http://www.w3.org/2000/svg"
   xmlns="http://www.w3.org/2000/svg"
   xmlns:sodipodi="http://sodipodi.sourceforge.net/DTD/sodipodi-0.dtd"
   xmlns:inkscape="http://www.inkscape.org/namespaces/inkscape"
   width="0.122857in"
   height="0.105714in"
   viewBox="0 0 43 37"
   id="svg2994"
   version="1.1"
   inkscape:version="0.48.1 "
   sodipodi:docname="link.svg">
  <metadata
     id="metadata3002">
    <rdf:RDF>
      <cc:Work
         rdf:about="">
        <dc:format>image/svg+xml</dc:format>
        <dc:type
           rdf:resource="http://purl.org/dc/dcmitype/StillImage" />
        <dc:title></dc:title>
      </cc:Work>
    </rdf:RDF>
  </metadata>
  <defs
     id="defs3000" />
  <sodipodi:namedview
     pagecolor="#ffffff"
     bordercolor="#666666"
     borderopacity="1"
     objecttolerance="10"
     gridtolerance="10"
     guidetolerance="10"
     inkscape:pageopacity="0"
     inkscape:pageshadow="2"
     inkscape:window-width="836"
     inkscape:window-height="654"
     id="namedview2998"
     showgrid="false"
     inkscape:zoom="35.143452"
     inkscape:cx="4.1415815"
     inkscape:cy="4.7568689"
     inkscape:window-x="261"
     inkscape:window-y="119"
     inkscape:window-maximized="0"
     inkscape:current-layer="svg2994" />
  <path
     style="fill:#ffffff;stroke:none;stroke-width:0.25700000000000001;stroke-miterlimit:4;stroke-dasharray:none;fill-opacity:1;opacity:0.57"
     d="M 3.96875 0.3125 C 3.8477117 0.32135501 3.7307917 0.33510773 3.59375 0.34375 C 1.4988721 1.0388877 0.45989943 2.5959993 0.28125 4.21875 C 0.45668292 4.3154242 1.0459319 4.6204402 1.40625 4.59375 C 1.8253917 4.5603215 1.0696422 4.980752 0.8125 5.71875 C 0.72325654 5.9757712 0.60397555 6.1144317 0.5 6.21875 C 0.86474306 7.3168372 1.6478002 8.2509483 2.75 8.78125 C 2.9811052 8.6824587 3.2554041 8.625 3.53125 8.625 C 4.238391 8.625 4.2080367 8.8728215 4.59375 8.90625 C 4.9794633 8.9371071 5.3344293 8.808536 5.625 8.90625 C 5.7401997 8.944307 5.8910355 9.0183353 6.03125 9.09375 C 8.3556301 8.499606 9.4536197 6.2597202 9.21875 4.1875 C 9.1895878 4.3205958 9.154622 4.8196625 9.125 4.90625 C 9.0941429 5.0013926 9.0035711 5.3401789 8.875 5.46875 C 8.7464289 5.5973211 8.4392855 6.0348211 8.375 5.90625 C 8.3107145 5.7776789 8.2830355 5.0348211 8.21875 4.90625 C 8.1544645 4.7776789 7.8526777 4.7205355 7.53125 4.65625 C 7.2098223 4.5919645 6.8455355 4.6762839 6.78125 4 C 6.7169645 3.3262875 6.34375 3.78125 6.34375 3.78125 C 6.34375 3.78125 5.9396785 3.0955355 5.90625 3.03125 C 5.8753929 2.9669645 6.3125 2.5959285 6.3125 2.5625 C 6.3125 2.5316429 6.0330355 2.0642855 5.96875 2 C 5.9044645 1.9357145 5.4705355 1.7496071 5.40625 1.71875 C 5.3419645 1.6853215 4.71875 1.6253929 4.71875 1.65625 C 4.71875 1.6896785 4.40625 1.7798574 4.40625 1.875 C 4.3651073 2.0087139 4.3374283 2.276893 4.25 2.34375 C 4.1265718 2.4337498 3.9183212 2.2727499 3.84375 2.21875 C 3.7151789 2.121036 3.8107145 1.8767855 3.875 1.8125 C 3.9392855 1.7482145 3.0003929 1.7169645 3.03125 1.78125 C 3.0646785 1.8455355 3.0933571 2.1853215 3.0625 2.21875 C 3.0290715 2.2496071 2.9396785 2.59375 2.90625 2.59375 C 2.8753929 2.59375 2.53125 2.96875 2.53125 2.96875 C 2.53125 2.96875 2.0607145 1.9371071 2.125 1.90625 C 2.1892855 1.8728215 2.4673574 1.3433571 2.5625 1.3125 C 2.660214 1.2790715 2.7790715 1.125 2.8125 1.125 C 2.8433571 1.125 3.0628929 0.875 3.09375 0.875 C 3.1271785 0.875 3.3714289 0.75039294 3.5 0.78125 C 3.6285711 0.81467848 3.8991078 0.87717848 4.15625 0.84375 C 4.4133922 0.81289294 4.2834285 0.50178554 4.25 0.4375 C 4.2393882 0.41539205 4.0930371 0.36192305 3.96875 0.3125 z M 5.375 2.1875 C 5.375 2.1875 5.7521785 2.4044645 5.71875 2.46875 C 5.6878929 2.5330355 5.4396785 2.4375 5.40625 2.4375 C 5.3753929 2.4375 5.375 2.1875 5.375 2.1875 z M 3.40625 2.875 C 3.5868924 2.8467144 3.818501 2.888643 4.1875 2.9375 C 4.9280694 3.0326426 5.7133934 3.0776801 5.90625 3.65625 C 6.0991066 4.2348199 6.3125 4.6781793 6.3125 4.96875 C 6.3125 5.2567492 5.4446422 6.4871083 5.1875 6.90625 C 4.9303578 7.3228203 4.1343207 7.6321422 3.84375 7.375 C 3.3294657 6.570145 4.25 5.5089277 4.25 5.1875 C 4.25 4.8660723 3.7276777 4.722714 3.40625 4.625 C 3.0848223 4.5298574 2.4250012 3.3821422 2.875 3.125 C 3.0999994 2.9964289 3.2256076 2.9032856 3.40625 2.875 z M 6.34375 5.84375 C 6.34375 5.84375 6.4392855 6.3089289 6.375 6.4375 C 6.3107145 6.5660711 5.7464289 6.6637851 5.875 6.4375 C 6.0035711 6.2137863 6.34375 5.84375 6.34375 5.84375 z "
     transform="matrix(3.8888993,0,0,3.8888993,-3.2175855e-5,0)"
     id="Valg"
     inkscape:export-filename="C:\Users\Fredrik\Desktop\fredrik.ludvigsen.name\css\fosswinckelsgate\link.png"
     inkscape:export-xdpi="307.4733"
     inkscape:export-ydpi="307.4733" />
</svg>
